<?xml version="1.0" encoding="UTF-8" standalone="no"?>
<!-- Created with Inkscape (http://www.inkscape.org/) -->

<svg
   width="140mm"
   height="200mm"
   viewBox="0 0 140 200"
   version="1.1"
   id="svg5"
   xml:space="preserve"
   inkscape:version="1.2.2 (732a01da63, 2022-12-09)"
   sodipodi:docname="Wheat.svg"
   xmlns:inkscape="http://www.inkscape.org/namespaces/inkscape"
   xmlns:sodipodi="http://sodipodi.sourceforge.net/DTD/sodipodi-0.dtd"
   xmlns="http://www.w3.org/2000/svg"
   xmlns:svg="http://www.w3.org/2000/svg"><sodipodi:namedview
     id="namedview7"
     pagecolor="#505050"
     bordercolor="#ffffff"
     borderopacity="1"
     inkscape:showpageshadow="0"
     inkscape:pageopacity="0"
     inkscape:pagecheckerboard="1"
     inkscape:deskcolor="#505050"
     inkscape:document-units="mm"
     showgrid="false"
     inkscape:zoom="0.5"
     inkscape:cx="268"
     inkscape:cy="440"
     inkscape:window-width="1366"
     inkscape:window-height="697"
     inkscape:window-x="-8"
     inkscape:window-y="-8"
     inkscape:window-maximized="1"
     inkscape:current-layer="layer1" /><defs
     id="defs2" /><g
     inkscape:label="Capa 1"
     inkscape:groupmode="layer"
     id="layer1"><rect
       style="fill:#f5cc4d;fill-opacity:1;stroke:#000000;stroke-width:0.264583;stroke-opacity:0"
       id="rect118"
       width="140.00052"
       height="199.99792"
       x="0.00055802974"
       y="0.00067887764"
       ry="7"
       rx="0" /><rect
       style="fill:#d4d067;fill-opacity:1;stroke:#000000;stroke-width:0.283081;stroke-opacity:0"
       id="rect852"
       width="124.71692"
       height="184.71692"
       x="7.6415405"
       y="7.6415401"
       ry="7.3886771" /><path
       style="fill:#dfc500;fill-opacity:1;stroke:#000000;stroke-width:0.319427;stroke-opacity:0"
       d="m 65.069812,162.09904 c 0,0 -1.366665,-1.30945 -2.632282,-6.25055 -1.728968,-6.75006 -4.440911,-17.77791 -13.994957,-18.5184 -16.547685,-1.28253 -19.729932,5.13014 -19.729932,5.13014 0,0 3.182247,-12.18408 21.321054,-11.86345 18.138808,0.32063 15.036117,31.50226 15.036117,31.50226 z"
       id="path3351"
       sodipodi:nodetypes="csscsc" /><path
       style="fill:#d6be00;fill-opacity:1;stroke:#000000;stroke-width:0.319427;stroke-opacity:0"
       d="m 67.048642,146.1942 c 0,0 1.012585,-8.72882 8.550717,-12.24301 7.538132,-3.51419 25.202111,0.56681 25.202111,0.56681 0,0 -16.876415,-0.34008 -23.064434,3.96763 -6.188015,4.30773 -8.888241,10.99603 -8.888241,10.99603 l -3.037755,-0.22672 z"
       id="path3409" /><path
       style="fill:#f5d800;fill-opacity:1;stroke:#000000;stroke-width:0.319427;stroke-opacity:0"
       d="m 65.923548,154.41287 c 0,0 0.112505,-8.78548 10.463375,-13.09321 10.350869,-4.30771 17.326455,1.13362 17.326455,1.13362 0,0 -13.552499,-0.23695 -18.226527,3.62755 C 71.19031,149.63322 65.681,163.70439 65.681,163.70439 Z"
       id="path3353"
       sodipodi:nodetypes="cscscc" /><path
       style="fill:#fadd00;fill-opacity:1;stroke:#000000;stroke-width:0.319427;stroke-opacity:0"
       d="m 63.404645,160.29401 c 0,0 -0.960186,-7.89414 -11.143376,-11.10048 -10.183191,-3.20633 -21.63928,1.92381 -21.63928,1.92381 0,0 12.220224,-11.69799 21.63928,-8.33648 8.47412,3.02427 12.944432,11.82391 12.944432,11.82391 z"
       id="path3349"
       sodipodi:nodetypes="cscscc" /><path
       style="fill:#ccb700;fill-opacity:1;stroke:#000000;stroke-width:0.351432;stroke-opacity:0"
       d="M 64.433295,147.22502 C 63.302579,137.42088 65.37784,122.55018 72.086017,110.92085 82.257219,93.288014 98.98728,80.16197 98.98728,80.16197 l -1.84433,3.319379 c 0,0 -19.493742,20.883611 -23.31366,28.858111 -5.19797,10.85133 -8.384328,29.56796 -9.395995,34.88556 z"
       id="path3415-4"
       sodipodi:nodetypes="csccsc" /><path
       style="fill:#ccb700;fill-opacity:1;stroke:#000000;stroke-width:0.319427;stroke-opacity:0"
       d="m 63.652885,130.22403 c 0,0 -4.029863,-14.52398 -3.804844,-19.39851 0.225017,-4.87453 2.812735,-15.98391 5.51296,-22.105418 2.700226,-6.121497 8.358904,-9.328989 10.800903,-11.449477 2.3354,-2.027924 11.528221,-6.122476 11.528221,-6.122476 l -0.309061,1.412985 c 0,0 -7.947907,5.112375 -9.701937,6.108727 -5.110364,2.902872 -9.863391,9.131954 -10.968013,11.297216 -1.634621,3.204152 -5.40045,16.519863 -5.123174,20.977503 0.403357,6.48456 2.985496,16.65839 2.985496,16.65839 z"
       id="path3605"
       sodipodi:nodetypes="csssccssscc" /><path
       style="fill:#ebce00;fill-opacity:1;stroke:#000000;stroke-width:0.319427;stroke-opacity:0"
       d="m 64.460927,140.86623 c 0,0 2.025169,-25.84634 -0.450037,-34.00834 C 61.535682,98.69588 39.033797,75.343488 39.033797,75.343488 l 0.675056,3.00407 c 0,0 16.942709,17.188597 21.359729,26.271102 0,0 1.166076,2.53473 1.677842,4.78973 1.112807,4.90338 0.166946,31.05724 0.166946,31.05724 z"
       id="path3415"
       sodipodi:nodetypes="csccsscc" /><path
       style="fill:#e0c700;fill-opacity:1;stroke:#000000;stroke-width:0.319427;stroke-opacity:0"
       d="m 65.919965,134.15013 c 0,0 3.867512,-10.25919 3.867512,-15.02036 0,-4.76117 -0.337528,-18.47786 -2.3627,-21.878699 -2.025169,-3.400834 -5.402794,-11.933767 -8.207534,-15.776644 -2.666178,-3.653033 -7.99382,-6.442134 -7.99382,-6.442134 l 3.6003,0.453443 c 0,0 2.961509,2.079401 5.661735,5.02679 1.012599,1.105286 2.893882,2.372874 4.262474,4.245355 2.280935,3.12074 4.055095,8.185485 5.039543,10.736089 1.575126,4.081 2.925244,17.17421 2.700227,21.25522 -0.225019,4.081 -3.600302,15.87055 -3.600302,15.87055 z"
       id="path3549"
       sodipodi:nodetypes="csssccsssscc" /><path
       style="fill:#ffe200;fill-opacity:1;stroke:#000000;stroke-width:0.319427;stroke-opacity:0"
       d="m 65.92355,167.16601 c 0,0 -2.587718,-26.29979 15.863828,-43.07724 18.451542,-16.77745 37.353122,-13.60334 37.353122,-13.60334 0,0 -29.069742,-3.95815 -37.166712,3.02323 -7.143795,6.15953 -13.318402,14.04198 -16.531985,22.77132 -1.80607,4.90598 -2.810966,10.13849 -2.692177,15.26788 0.123983,5.35371 -0.433111,7.86489 3.173924,15.61815 z"
       id="path2863"
       sodipodi:nodetypes="cscsssc" /><path
       style="fill:#ffe200;fill-opacity:1;stroke:#000000;stroke-width:0.279572;stroke-opacity:0"
       d="m 63.649249,155.47301 c 0,0 -1.709635,-22.95062 -4.327387,-29.61267 C 57.75918,121.88338 54.764314,113.83281 51.822524,111.17868 49.083658,108.70762 38.774378,96.683274 38.774378,96.683274 l -1.124655,-3.384329 c 0,0 14.553613,13.975335 16.632096,16.513635 2.078482,2.53832 6.026066,9.86505 7.772072,14.31933 2.262312,5.77144 3.330795,28.27816 3.330795,28.27816 z"
       id="path3411"
       sodipodi:nodetypes="cssccsscc" /><path
       style="fill:#ebcf00;fill-opacity:1;stroke:#000000;stroke-width:0.319427;stroke-opacity:0"
       d="m 66.373586,111.61904 c 0,0 2.025169,-15.870546 1.462624,-19.951552 -0.562547,-4.080994 -1.800153,-19.158031 -2.925245,-23.465751 -1.125096,-4.307724 -2.587717,-8.162003 -2.587717,-8.162003 l 1.800149,0.453446 c 0,0 2.700228,6.121501 3.375285,10.542584 0.675056,4.421084 2.025169,17.684338 2.137677,22.332147 0.112504,4.647809 -1.462621,17.684329 -1.462621,17.684329 z"
       id="path3717" /><path
       style="fill:#f5d900;fill-opacity:1;stroke:#000000;stroke-width:0.319427;stroke-opacity:0"
       d="m 63.918247,138.38118 c 0,0 1.708459,-39.68744 0.276453,-46.741395 C 62.762689,84.585847 52.420387,66.950993 52.420387,66.950993 l 2.704909,1.442852 c 0,0 9.026785,13.873172 11.483389,22.764996 2.288787,8.284409 -1.573476,46.743349 -1.573476,46.743349 z"
       id="path3661"
       sodipodi:nodetypes="csccscc" /><path
       style="fill:#ffe300;fill-opacity:1;stroke:#000000;stroke-width:0.319427;stroke-opacity:0"
       d="m 64.292162,139.3771 c 0,0 0.843822,-27.53132 4.669141,-34.10627 3.825322,-6.57495 8.213187,-10.202508 14.513713,-11.109391 6.300532,-0.906896 10.688392,-0.453448 10.688392,-0.453448 l -3.71281,1.133607 c 0,0 -7.988165,-0.226724 -12.71356,3.174112 -4.725394,3.40084 -5.062925,5.32798 -7.088094,10.08914 -2.02517,4.76118 -4.149198,30.30868 -4.149198,30.30868 z"
       id="path3493"
       sodipodi:nodetypes="cssccsscc" /><path
       style="fill:#ffcf00;fill-opacity:1;stroke:#000000;stroke-width:0.319427;stroke-opacity:0"
       d="m 39.483835,96.201942 c 0,0 0.225019,-2.153871 -0.618801,-4.194362 -0.843821,-2.040503 -15.243988,-10.628069 -16.994223,-10.628069 -1.750236,0 7.955617,11.863447 10.978752,13.46662 3.023134,1.60316 6.634272,1.355811 6.634272,1.355811 z"
       id="path4447" /><path
       style="fill:#facb00;fill-opacity:1;stroke:#000000;stroke-width:0.319427;stroke-opacity:0"
       d="m 55.010135,69.902154 c 0,0 0.787564,-5.214612 0.450036,-5.894782 -0.337528,-0.680167 -8.531902,-10.692065 -9.113262,-10.315864 -0.536425,0.347125 3.302125,12.270834 3.937832,13.036534 0.751074,0.904659 4.725394,3.174112 4.725394,3.174112 z"
       id="path7907"
       sodipodi:nodetypes="csssc" /><path
       style="fill:#f5c700;fill-opacity:1;stroke:#000000;stroke-width:0.319427;stroke-opacity:0"
       d="m 63.729616,61.853513 c 0,0 1.406361,-1.870458 1.293857,-3.230794 -0.112505,-1.360334 -4.500376,-8.871943 -4.89416,-8.728808 -0.374178,0.136007 0.281274,8.275365 0.506295,9.295615 0.225019,1.02025 3.094008,2.663987 3.094008,2.663987 z"
       id="path7909"
       sodipodi:nodetypes="csssc" /><path
       style="fill:#ffcf00;fill-opacity:1;stroke:#000000;stroke-width:0.319427;stroke-opacity:0"
       d="m 89.438018,94.218117 c 0,0 0.87195,1.643733 1.85641,1.757101 0.98445,0.113307 12.713562,-1.757101 12.713562,-2.267227 0,-0.510126 -11.504092,-1.700411 -12.601052,-1.700411 -1.09697,0 -1.96892,2.210537 -1.96892,2.210537 z"
       id="path7911"
       sodipodi:nodetypes="ccssc" /><path
       style="fill:#ebbf00;fill-opacity:1;stroke:#000000;stroke-width:0.319427;stroke-opacity:0"
       d="m 40.833947,78.375897 c 0,0 -1.715768,0.396765 -2.109549,0.198383 -0.393784,-0.198383 -7.453749,-8.162001 -7.256859,-8.445406 0.196892,-0.283401 9.053767,4.367192 9.394537,4.676148 0.283455,0.256992 -0.02813,3.570875 -0.02813,3.570875 z"
       id="path7913"
       sodipodi:nodetypes="cssscc" /><path
       style="fill:#d6af00;fill-opacity:1;stroke:#000000;stroke-width:0.319427;stroke-opacity:0"
       d="m 96.056938,83.543783 c 0,0 3.102692,0.440869 3.739142,0.280554 0.63645,-0.160315 12.13232,-9.819403 11.85387,-10.340431 -0.27844,-0.52103 -14.16099,4.128158 -14.797442,4.809504 -0.63645,0.681348 -0.79557,5.250373 -0.79557,5.250373 z"
       id="path7969"
       sodipodi:nodetypes="csssc" /><path
       style="fill:#d6af00;fill-opacity:1;stroke:#000000;stroke-width:0.319427;stroke-opacity:0"
       d="m 85.607872,72.822239 c 0,0 1.012585,0.850209 1.603258,0.821868 0.590676,-0.02835 6.159888,-2.749008 6.103638,-3.004068 -0.0563,-0.255064 -6.075509,-0.05668 -6.553674,0.05668 -0.478167,0.113356 -1.153222,2.12552 -1.153222,2.12552 z"
       id="path8187"
       sodipodi:nodetypes="csssc" /><path
       style="fill:#e0b800;fill-opacity:1;stroke:#000000;stroke-width:0.319427;stroke-opacity:0"
       d="m 54.687732,76.529925 c 0,0 0.676227,-1.883723 0.358003,-2.284515 -0.318224,-0.400792 -7.677171,-4.408714 -7.915839,-4.088079 -0.238669,0.320633 4.57448,6.332515 5.131373,6.61307 0.556893,0.280554 2.426463,-0.240476 2.426463,-0.240476 z"
       id="path8189"
       sodipodi:nodetypes="csssc" /><path
       style="fill:#ffe200;fill-opacity:1;stroke:#000000;stroke-width:0.319427;stroke-opacity:0"
       d="m 64.035582,146.46815 c 0,0 -1.966306,-68.52992 4.025645,-87.108582 C 70.886241,50.60032 82.61145,32.351091 82.462432,33.73995 l -0.450038,4.194363 c 0,0 -9.338279,11.336115 -11.475958,23.465755 -4.235899,24.035379 -4.725396,81.279922 -4.725396,81.279922 z"
       id="path8917"
       sodipodi:nodetypes="csscscc" /><path
       style="fill:#ffcf00;fill-opacity:1;stroke:#000000;stroke-width:0.319427;stroke-opacity:0"
       d="m 80.465389,38.104353 c 0,0 3.122138,0.453446 3.85345,0.113356 0.731312,-0.340084 11.857439,-9.261816 11.618769,-9.903084 -0.23867,-0.641268 -13.833122,4.543192 -14.787796,5.104302 -0.954674,0.561109 -0.684423,4.685421 -0.684423,4.685421 z"
       id="path8919"
       sodipodi:nodetypes="cssscc" /></g></svg>
