<?xml version="1.0" encoding="UTF-8" standalone="no"?>
<!-- Created with Inkscape (http://www.inkscape.org/) -->

<svg
   width="140mm"
   height="200mm"
   viewBox="0 0 140 200"
   version="1.1"
   id="svg5"
   xml:space="preserve"
   inkscape:version="1.2.2 (732a01da63, 2022-12-09)"
   sodipodi:docname="Wood.svg"
   xmlns:inkscape="http://www.inkscape.org/namespaces/inkscape"
   xmlns:sodipodi="http://sodipodi.sourceforge.net/DTD/sodipodi-0.dtd"
   xmlns="http://www.w3.org/2000/svg"
   xmlns:svg="http://www.w3.org/2000/svg"><sodipodi:namedview
     id="namedview7"
     pagecolor="#505050"
     bordercolor="#ffffff"
     borderopacity="1"
     inkscape:showpageshadow="0"
     inkscape:pageopacity="0"
     inkscape:pagecheckerboard="1"
     inkscape:deskcolor="#505050"
     inkscape:document-units="mm"
     showgrid="false"
     inkscape:zoom="0.5"
     inkscape:cx="212"
     inkscape:cy="410"
     inkscape:window-width="1366"
     inkscape:window-height="697"
     inkscape:window-x="-8"
     inkscape:window-y="-8"
     inkscape:window-maximized="1"
     inkscape:current-layer="layer1" /><defs
     id="defs2" /><g
     inkscape:label="Capa 1"
     inkscape:groupmode="layer"
     id="layer1"><rect
       style="fill:#f5cc4d;fill-opacity:1;stroke:#000000;stroke-width:0.264583;stroke-opacity:0"
       id="rect118"
       width="140.00052"
       height="199.99792"
       x="0.00055802974"
       y="0.00067887764"
       ry="7"
       rx="0" /><rect
       style="fill:#2f8330;fill-opacity:1;stroke:#000000;stroke-width:0.283081;stroke-opacity:0"
       id="rect852"
       width="124.71692"
       height="184.71692"
       x="7.6415405"
       y="7.6415401"
       ry="7.3886771" /><ellipse
       style="fill:#53371b;fill-opacity:1;stroke:#000000;stroke-width:0.199465;stroke-opacity:0"
       id="path1798-0"
       cy="97.050606"
       cx="56.114971"
       rx="10.004245"
       ry="9.4096947" /><ellipse
       style="fill:#53371b;fill-opacity:1;stroke:#000000;stroke-width:0.199465;stroke-opacity:0"
       id="path1798"
       cy="111.26226"
       cx="46.035141"
       rx="10.004245"
       ry="9.4096947" /><path
       style="fill:#53371b;fill-opacity:1;stroke:#53371b;stroke-width:0.510071;stroke-dasharray:none;stroke-opacity:0"
       d="m 41.099393,103.07703 20.512185,-11.21518 8.021223,11.57958 -17.18341,15.02088"
       id="path8304"
       sodipodi:nodetypes="cccc" /><ellipse
       style="fill:#c28443;fill-opacity:1;stroke:#000000;stroke-width:0.366728;stroke-opacity:0"
       id="path1854"
       cx="45.795422"
       cy="111.21498"
       rx="9.1199408"
       ry="8.3111973" /><path
       style="fill:#996630;fill-opacity:0;stroke:#9e6a34;stroke-width:0.658378;stroke-dasharray:none;stroke-opacity:1"
       id="path3780"
       sodipodi:type="arc"
       sodipodi:cx="45.27784"
       sodipodi:cy="111.44226"
       sodipodi:rx="7.6937714"
       sodipodi:ry="6.9067612"
       sodipodi:start="2.3623483"
       sodipodi:end="5.7707999"
       sodipodi:arc-type="arc"
       d="m 39.804146,116.29593 a 7.6937714,6.9067612 0 0 1 -1.735233,-7.26673 7.6937714,6.9067612 0 0 1 6.611418,-4.47284 7.6937714,6.9067612 0 0 1 7.303227,3.49981"
       sodipodi:open="true" /><path
       style="fill:#996630;fill-opacity:0;stroke:#9e6a34;stroke-width:0.443334;stroke-dasharray:none;stroke-opacity:1"
       id="path3780-2"
       sodipodi:type="arc"
       sodipodi:cx="-45.813221"
       sodipodi:cy="111.4645"
       sodipodi:rx="6.4462905"
       sodipodi:ry="5.3855205"
       sodipodi:start="0.56239158"
       sodipodi:end="2.5985188"
       sodipodi:arc-type="arc"
       d="m -40.359773,114.33612 a 6.4462905,5.3855205 0 0 1 -5.515711,2.51365 6.4462905,5.3855205 0 0 1 -5.456563,-2.60219"
       sodipodi:open="true"
       transform="scale(-1,1)" /><path
       style="fill:#996630;fill-opacity:0;stroke:#9e6a34;stroke-width:0.481298;stroke-dasharray:none;stroke-opacity:1"
       id="path3780-2-7"
       sodipodi:type="arc"
       sodipodi:cx="45.193283"
       sodipodi:cy="111.01985"
       sodipodi:rx="4.5369554"
       sodipodi:ry="3.900579"
       sodipodi:start="3.2919128"
       sodipodi:end="0.5547067"
       sodipodi:arc-type="arc"
       d="m 40.70749,110.43572 a 4.5369554,3.900579 0 0 1 3.414033,-3.20605 4.5369554,3.900579 0 0 1 4.744985,1.50074 4.5369554,3.900579 0 0 1 0.183436,4.34385"
       sodipodi:open="true" /><ellipse
       style="fill:#996630;fill-opacity:1;stroke:#9e6a34;stroke-width:0.331453;stroke-opacity:0"
       id="path6948"
       cx="45.628304"
       cy="111.34072"
       rx="1.187987"
       ry="0.83445603" /><ellipse
       style="fill:#53371b;fill-opacity:1;stroke:#53371b;stroke-width:0.51007;stroke-dasharray:none;stroke-opacity:0"
       id="path7470"
       cx="64.980148"
       cy="98.074516"
       rx="7.2861862"
       ry="6.9789157" /><ellipse
       style="fill:#53371b;fill-opacity:1;stroke:#000000;stroke-width:0.199465;stroke-opacity:0"
       id="path1798-3"
       cy="111.60268"
       cx="64.84623"
       rx="10.004245"
       ry="9.4096947" /><ellipse
       style="fill:#53371b;fill-opacity:1;stroke:#000000;stroke-width:0.199465;stroke-opacity:0"
       id="path1798-5"
       cy="111.86726"
       cx="82.573311"
       rx="10.004245"
       ry="9.4096947" /><path
       style="fill:#53371b;fill-opacity:1;stroke:#53371b;stroke-width:0.510071;stroke-dasharray:none;stroke-opacity:0"
       d="M 59.910479,103.41745 80.422668,92.202267 88.443891,103.78185 71.260478,118.80273"
       id="path8304-7"
       sodipodi:nodetypes="cccc" /><ellipse
       style="fill:#c28443;fill-opacity:1;stroke:#000000;stroke-width:0.366728;stroke-opacity:0"
       id="path1854-6"
       cx="64.606506"
       cy="111.55539"
       rx="9.1199408"
       ry="8.3111973" /><path
       style="fill:#996630;fill-opacity:0;stroke:#9e6a34;stroke-width:0.658378;stroke-dasharray:none;stroke-opacity:1"
       id="path3780-4"
       sodipodi:type="arc"
       sodipodi:cx="64.088928"
       sodipodi:cy="111.78268"
       sodipodi:rx="7.6937714"
       sodipodi:ry="6.9067612"
       sodipodi:start="0.56239158"
       sodipodi:end="5.5317364"
       sodipodi:arc-type="arc"
       d="m 70.597723,115.46544 a 7.6937714,6.9067612 0 0 1 -8.292239,3.03588 7.6937714,6.9067612 0 0 1 -5.875978,-6.06673 7.6937714,6.9067612 0 0 1 4.501224,-6.94996 7.6937714,6.9067612 0 0 1 8.780041,1.58281"
       sodipodi:open="true" /><path
       style="fill:#996630;fill-opacity:0;stroke:#9e6a34;stroke-width:0.443334;stroke-dasharray:none;stroke-opacity:1"
       id="path3780-2-4"
       sodipodi:type="arc"
       sodipodi:cx="-64.624306"
       sodipodi:cy="111.80492"
       sodipodi:rx="6.4462905"
       sodipodi:ry="5.3855205"
       sodipodi:start="0.56239158"
       sodipodi:end="4.9513939"
       sodipodi:arc-type="arc"
       d="m -59.170858,114.67653 a 6.4462905,5.3855205 0 0 1 -8.28401,1.96695 6.4462905,5.3855205 0 0 1 -3.231948,-6.66905 6.4462905,5.3855205 0 0 1 7.588579,-3.40195"
       sodipodi:open="true"
       transform="scale(-1,1)" /><path
       style="fill:#996630;fill-opacity:0;stroke:#9e6a34;stroke-width:0.481298;stroke-dasharray:none;stroke-opacity:1"
       id="path3780-2-7-3"
       sodipodi:type="arc"
       sodipodi:cx="64.004372"
       sodipodi:cy="111.36028"
       sodipodi:rx="4.5369554"
       sodipodi:ry="3.900579"
       sodipodi:start="1.1299039"
       sodipodi:end="5.4204878"
       sodipodi:arc-type="arc"
       d="m 65.940502,114.88785 a 4.5369554,3.900579 0 0 1 -5.727405,-1.38508 4.5369554,3.900579 0 0 1 0.792534,-5.06957 4.5369554,3.900579 0 0 1 5.949535,-0.0358"
       sodipodi:open="true" /><ellipse
       style="fill:#996630;fill-opacity:1;stroke:#9e6a34;stroke-width:0.331453;stroke-opacity:0"
       id="path6948-3"
       cx="64.439392"
       cy="111.68113"
       rx="1.187987"
       ry="0.83445603" /><ellipse
       style="fill:#53371b;fill-opacity:1;stroke:#53371b;stroke-width:0.51007;stroke-dasharray:none;stroke-opacity:0"
       id="path7470-3"
       cx="83.791222"
       cy="98.414932"
       rx="7.2861862"
       ry="6.9789157" /><path
       style="fill:#53371b;fill-opacity:1;stroke:#53371b;stroke-width:0.510071;stroke-dasharray:none;stroke-opacity:0"
       d="m 77.637563,103.68203 20.512188,-11.21518 8.021219,11.57958 -17.183409,15.02088"
       id="path8304-3"
       sodipodi:nodetypes="cccc" /><ellipse
       style="fill:#53371b;fill-opacity:1;stroke:#53371b;stroke-width:0.51007;stroke-dasharray:none;stroke-opacity:0"
       id="path7470-8"
       cx="101.51832"
       cy="98.67952"
       rx="7.2861862"
       ry="6.9789157" /><path
       style="fill:#53371b;fill-opacity:1;stroke:#53371b;stroke-width:0.510071;stroke-dasharray:none;stroke-opacity:0"
       d="m 51.179234,88.865362 20.51218,-11.215179 8.02122,11.579581 -18.680119,14.178976"
       id="path8304-0"
       sodipodi:nodetypes="cccc" /><ellipse
       style="fill:#c28443;fill-opacity:1;stroke:#000000;stroke-width:0.366728;stroke-opacity:0"
       id="path1854-8"
       cx="55.875256"
       cy="97.003326"
       rx="9.1199408"
       ry="8.3111973" /><path
       style="fill:#996630;fill-opacity:0;stroke:#9e6a34;stroke-width:0.658378;stroke-dasharray:none;stroke-opacity:1"
       id="path3780-1"
       sodipodi:type="arc"
       sodipodi:cx="55.357677"
       sodipodi:cy="97.230606"
       sodipodi:rx="7.6937714"
       sodipodi:ry="6.9067612"
       sodipodi:start="0.56239158"
       sodipodi:end="5.5317364"
       sodipodi:arc-type="arc"
       d="m 61.866472,100.91337 a 7.6937714,6.9067612 0 0 1 -8.292239,3.03587 7.6937714,6.9067612 0 0 1 -5.875978,-6.066719 7.6937714,6.9067612 0 0 1 4.501224,-6.949957 7.6937714,6.9067612 0 0 1 8.780041,1.582809"
       sodipodi:open="true" /><path
       style="fill:#996630;fill-opacity:0;stroke:#9e6a34;stroke-width:0.443334;stroke-dasharray:none;stroke-opacity:1"
       id="path3780-2-3"
       sodipodi:type="arc"
       sodipodi:cx="-55.893055"
       sodipodi:cy="97.252846"
       sodipodi:rx="6.4462905"
       sodipodi:ry="5.3855205"
       sodipodi:start="0.2582804"
       sodipodi:end="4.0740626"
       sodipodi:arc-type="arc"
       d="m -49.660584,98.628407 a 6.4462905,5.3855205 0 0 1 -5.970897,4.005523 6.4462905,5.3855205 0 0 1 -6.34001,-3.587838 6.4462905,5.3855205 0 0 1 2.2374,-6.118326"
       sodipodi:open="true"
       transform="scale(-1,1)" /><path
       style="fill:#996630;fill-opacity:0;stroke:#9e6a34;stroke-width:0.481298;stroke-dasharray:none;stroke-opacity:1"
       id="path3780-2-7-2"
       sodipodi:type="arc"
       sodipodi:cx="55.273121"
       sodipodi:cy="96.808189"
       sodipodi:rx="4.5369554"
       sodipodi:ry="3.900579"
       sodipodi:start="1.1299039"
       sodipodi:end="5.4204878"
       sodipodi:arc-type="arc"
       d="m 57.209252,100.33576 a 4.5369554,3.900579 0 0 1 -5.727406,-1.385088 4.5369554,3.900579 0 0 1 0.792534,-5.069563 4.5369554,3.900579 0 0 1 5.949535,-0.0358"
       sodipodi:open="true" /><ellipse
       style="fill:#996630;fill-opacity:1;stroke:#9e6a34;stroke-width:0.331453;stroke-opacity:0"
       id="path6948-5"
       cx="55.708141"
       cy="97.129066"
       rx="1.187987"
       ry="0.83445603" /><ellipse
       style="fill:#53371b;fill-opacity:1;stroke:#53371b;stroke-width:0.51007;stroke-dasharray:none;stroke-opacity:0"
       id="path7470-2"
       cx="75.059975"
       cy="83.862854"
       rx="7.2861862"
       ry="6.9789157" /><ellipse
       style="fill:#53371b;fill-opacity:1;stroke:#000000;stroke-width:0.199465;stroke-opacity:0"
       id="path1798-7"
       cy="96.256844"
       cx="74.900398"
       rx="10.004245"
       ry="9.4096947" /><path
       style="fill:#53371b;fill-opacity:1;stroke:#53371b;stroke-width:0.510071;stroke-dasharray:none;stroke-opacity:0"
       d="m 69.964646,88.071612 21.728265,-7.56695 7.27287,12.608569 -17.651137,10.343659"
       id="path8304-6"
       sodipodi:nodetypes="cccc" /><ellipse
       style="fill:#c28443;fill-opacity:1;stroke:#000000;stroke-width:0.366728;stroke-opacity:0"
       id="path1854-9"
       cx="82.333595"
       cy="111.81998"
       rx="9.1199408"
       ry="8.3111973" /><path
       style="fill:#996630;fill-opacity:0;stroke:#9e6a34;stroke-width:0.658378;stroke-dasharray:none;stroke-opacity:1"
       id="path3780-5"
       sodipodi:type="arc"
       sodipodi:cx="81.81601"
       sodipodi:cy="112.04726"
       sodipodi:rx="7.6937714"
       sodipodi:ry="6.9067612"
       sodipodi:start="5.1414179"
       sodipodi:end="2.7130098"
       sodipodi:arc-type="arc"
       d="m 85.016526,105.76645 a 7.6937714,6.9067612 0 0 1 4.41455,7.26619 7.6937714,6.9067612 0 0 1 -6.520794,5.85116 7.6937714,6.9067612 0 0 1 -8.092185,-3.96622"
       sodipodi:open="true" /><path
       style="fill:#996630;fill-opacity:0;stroke:#9e6a34;stroke-width:0.443334;stroke-dasharray:none;stroke-opacity:1"
       id="path3780-2-5"
       sodipodi:type="arc"
       sodipodi:cx="-82.351395"
       sodipodi:cy="112.0695"
       sodipodi:rx="6.4462905"
       sodipodi:ry="5.3855205"
       sodipodi:start="4.0399055"
       sodipodi:end="1.4460483"
       sodipodi:arc-type="arc"
       d="m -86.366987,107.85653 a 6.4462905,5.3855205 0 0 1 7.424973,-0.35766 6.4462905,5.3855205 0 0 1 2.886738,5.72631 6.4462905,5.3855205 0 0 1 -5.494041,4.18799"
       transform="scale(-1,1)"
       sodipodi:open="true" /><path
       style="fill:#996630;fill-opacity:0;stroke:#9e6a34;stroke-width:0.481298;stroke-dasharray:none;stroke-opacity:1"
       id="path3780-2-7-7"
       sodipodi:type="arc"
       sodipodi:cx="81.731453"
       sodipodi:cy="111.62486"
       sodipodi:rx="4.5369554"
       sodipodi:ry="3.900579"
       sodipodi:start="5.8510874"
       sodipodi:end="2.8719235"
       sodipodi:arc-type="arc"
       d="m 85.851413,109.99139 a 4.5369554,3.900579 0 0 1 -0.561663,4.05336 4.5369554,3.900579 0 0 1 -4.458702,1.4031 4.5369554,3.900579 0 0 1 -3.472581,-2.78382"
       sodipodi:open="true" /><ellipse
       style="fill:#996630;fill-opacity:1;stroke:#9e6a34;stroke-width:0.331453;stroke-opacity:0"
       id="path6948-9"
       cx="82.166473"
       cy="111.94572"
       rx="1.187987"
       ry="0.83445603" /><ellipse
       style="fill:#53371b;fill-opacity:1;stroke:#53371b;stroke-width:0.51007;stroke-dasharray:none;stroke-opacity:0"
       id="path7470-0"
       cx="94.639145"
       cy="86.640976"
       rx="7.2861862"
       ry="6.9789157" /><ellipse
       style="fill:#53371b;fill-opacity:1;stroke:#000000;stroke-width:0.199465;stroke-opacity:0"
       id="path1798-8"
       cy="81.175598"
       cx="65.639984"
       rx="10.004245"
       ry="9.4096947" /><path
       style="fill:#53371b;fill-opacity:1;stroke:#53371b;stroke-width:0.510071;stroke-dasharray:none;stroke-opacity:0"
       d="m 63.814578,71.937988 21.096833,-3.14698 5.84757,12.534329 -18.704757,7.050304"
       id="path8304-9"
       sodipodi:nodetypes="cccc" /><ellipse
       style="fill:#c28443;fill-opacity:1;stroke:#000000;stroke-width:0.366728;stroke-opacity:0"
       id="path1854-0"
       cx="74.660675"
       cy="96.209564"
       rx="9.1199408"
       ry="8.3111973" /><ellipse
       style="fill:#c28443;fill-opacity:1;stroke:#000000;stroke-width:0.366728;stroke-opacity:0"
       id="path1854-5"
       cx="65.400261"
       cy="81.128319"
       rx="9.1199408"
       ry="8.3111973" /><path
       style="fill:#996630;fill-opacity:0;stroke:#9e6a34;stroke-width:0.658378;stroke-dasharray:none;stroke-opacity:1"
       id="path3780-9"
       sodipodi:type="arc"
       sodipodi:cx="74.143097"
       sodipodi:cy="96.436844"
       sodipodi:rx="7.6937714"
       sodipodi:ry="6.9067612"
       sodipodi:start="4.9659025"
       sodipodi:end="3.4795603"
       sodipodi:arc-type="arc"
       d="m 76.072746,89.750842 a 7.6937714,6.9067612 0 0 1 5.710555,5.8724 7.6937714,6.9067612 0 0 1 -4.021641,6.908778 7.6937714,6.9067612 0 0 1 -8.631016,-0.85534 7.6937714,6.9067612 0 0 1 -2.246085,-7.529914"
       sodipodi:open="true" /><path
       style="fill:#996630;fill-opacity:0;stroke:#9e6a34;stroke-width:0.658378;stroke-dasharray:none;stroke-opacity:1"
       id="path3780-58"
       sodipodi:type="arc"
       sodipodi:cx="64.882683"
       sodipodi:cy="81.355598"
       sodipodi:rx="7.6937714"
       sodipodi:ry="6.9067612"
       sodipodi:start="5.8320561"
       sodipodi:end="4.4106757"
       sodipodi:arc-type="arc"
       d="m 71.806734,78.344375 a 7.6937714,6.9067612 0 0 1 -1.370289,7.791032 7.6937714,6.9067612 0 0 1 -8.613351,1.557339 7.6937714,6.9067612 0 0 1 -4.62312,-6.707392 7.6937714,6.9067612 0 0 1 5.396454,-6.22453"
       sodipodi:open="true" /><path
       style="fill:#996630;fill-opacity:0;stroke:#9e6a34;stroke-width:0.443334;stroke-dasharray:none;stroke-opacity:1"
       id="path3780-2-51"
       sodipodi:type="arc"
       sodipodi:cx="-74.678474"
       sodipodi:cy="96.459084"
       sodipodi:rx="6.4462905"
       sodipodi:ry="5.3855205"
       sodipodi:start="2.0164353"
       sodipodi:end="5.8569105"
       sodipodi:arc-type="arc"
       d="m -77.457048,101.31863 a 6.4462905,5.3855205 0 0 1 -3.590435,-5.690969 6.4462905,5.3855205 0 0 1 5.497332,-4.504634 6.4462905,5.3855205 0 0 1 6.741104,3.109242"
       transform="scale(-1,1)"
       sodipodi:open="true" /><path
       style="fill:#996630;fill-opacity:0;stroke:#9e6a34;stroke-width:0.481298;stroke-dasharray:none;stroke-opacity:1"
       id="path3780-2-7-9"
       sodipodi:type="arc"
       sodipodi:cx="74.05854"
       sodipodi:cy="96.014435"
       sodipodi:rx="4.5369554"
       sodipodi:ry="3.900579"
       sodipodi:start="6.1640865"
       sodipodi:end="3.4860283"
       sodipodi:arc-type="arc"
       d="m 78.563356,95.550978 a 4.5369554,3.900579 0 0 1 -2.376872,3.90839 4.5369554,3.900579 0 0 1 -5.097387,-0.495858 4.5369554,3.900579 0 0 1 -1.301039,-4.266166"
       sodipodi:open="true" /><ellipse
       style="fill:#996630;fill-opacity:1;stroke:#9e6a34;stroke-width:0.331453;stroke-opacity:0"
       id="path6948-8"
       cx="74.493561"
       cy="96.335304"
       rx="1.187987"
       ry="0.83445603" /><path
       style="fill:#996630;fill-opacity:0;stroke:#9e6a34;stroke-width:0.443334;stroke-dasharray:none;stroke-opacity:1"
       id="path3780-2-6"
       sodipodi:type="arc"
       sodipodi:cx="-65.41806"
       sodipodi:cy="81.377838"
       sodipodi:rx="6.4462905"
       sodipodi:ry="5.3855205"
       sodipodi:start="1.9415138"
       sodipodi:end="5.9828339"
       sodipodi:arc-type="arc"
       d="m -67.75345,86.397508 a 6.4462905,5.3855205 0 0 1 -4.041351,-5.808642 6.4462905,5.3855205 0 0 1 5.883041,-4.580731 6.4462905,5.3855205 0 0 1 6.651406,3.776365"
       sodipodi:open="true"
       transform="scale(-1,1)" /><path
       style="fill:#996630;fill-opacity:0;stroke:#9e6a34;stroke-width:0.481298;stroke-dasharray:none;stroke-opacity:1"
       id="path3780-2-7-0"
       sodipodi:type="arc"
       sodipodi:cx="64.798126"
       sodipodi:cy="80.933189"
       sodipodi:rx="4.5369554"
       sodipodi:ry="3.900579"
       sodipodi:start="5.2519485"
       sodipodi:end="3.3190767"
       sodipodi:arc-type="arc"
       d="m 67.129024,77.586746 a 4.5369554,3.900579 0 0 1 1.813838,4.932911 4.5369554,3.900579 0 0 1 -5.477589,2.141994 4.5369554,3.900579 0 0 1 -3.132831,-4.417123"
       sodipodi:open="true" /><ellipse
       style="fill:#996630;fill-opacity:1;stroke:#9e6a34;stroke-width:0.331453;stroke-opacity:0"
       id="path6948-91"
       cx="65.233147"
       cy="81.254059"
       rx="1.187987"
       ry="0.83445603" /><ellipse
       style="fill:#53371b;fill-opacity:1;stroke:#53371b;stroke-width:0.51007;stroke-dasharray:none;stroke-opacity:0"
       id="path7470-7"
       cx="86.175232"
       cy="75.658485"
       rx="7.2861862"
       ry="6.9789157" /></g></svg>
