<?xml version="1.0" encoding="UTF-8" standalone="no"?>
<!-- Created with Inkscape (http://www.inkscape.org/) -->

<svg
   width="140mm"
   height="200mm"
   viewBox="0 0 140 200"
   version="1.1"
   id="svg5"
   xml:space="preserve"
   inkscape:version="1.2.2 (732a01da63, 2022-12-09)"
   sodipodi:docname="Wool.svg"
   inkscape:export-filename="Wood.png"
   inkscape:export-xdpi="96"
   inkscape:export-ydpi="96"
   xmlns:inkscape="http://www.inkscape.org/namespaces/inkscape"
   xmlns:sodipodi="http://sodipodi.sourceforge.net/DTD/sodipodi-0.dtd"
   xmlns="http://www.w3.org/2000/svg"
   xmlns:svg="http://www.w3.org/2000/svg"><sodipodi:namedview
     id="namedview7"
     pagecolor="#505050"
     bordercolor="#ffffff"
     borderopacity="1"
     inkscape:showpageshadow="0"
     inkscape:pageopacity="0"
     inkscape:pagecheckerboard="1"
     inkscape:deskcolor="#505050"
     inkscape:document-units="mm"
     showgrid="false"
     inkscape:zoom="0.5"
     inkscape:cx="92"
     inkscape:cy="430"
     inkscape:window-width="1366"
     inkscape:window-height="697"
     inkscape:window-x="-8"
     inkscape:window-y="-8"
     inkscape:window-maximized="1"
     inkscape:current-layer="layer1" /><defs
     id="defs2" /><g
     inkscape:label="Capa 1"
     inkscape:groupmode="layer"
     id="layer1"><rect
       style="fill:#f5cc4d;fill-opacity:1;stroke:#000000;stroke-width:0.264583;stroke-opacity:0"
       id="rect118"
       width="140.00052"
       height="199.99792"
       x="0.00055802974"
       y="0.00067887764"
       ry="7"
       rx="0" /><rect
       style="fill:#e7b2a9;fill-opacity:1;stroke:#000000;stroke-width:0.283081;stroke-opacity:0"
       id="rect852"
       width="124.71692"
       height="184.71692"
       x="7.6415405"
       y="7.6415401"
       ry="7.3886771" /><circle
       style="fill:#f0f0f0;fill-opacity:1;stroke:#53371b;stroke-width:0.235521;stroke-dasharray:none;stroke-opacity:0"
       id="path12314"
       cx="-83.9655"
       cy="-90.453934"
       r="25.6"
       transform="rotate(-175.2)" /><path
       style="fill:#ffffff;fill-opacity:1;stroke:#53371b;stroke-width:0.235521;stroke-dasharray:none;stroke-opacity:0"
       d="m 54.617453,96.997228 -2.648695,0.59463 c 0,0 -9.765731,6.543782 -13.694152,10.793322 -2.830505,3.06186 -3.630658,7.21068 -2.898756,9.52361 0.684402,2.16282 4.75957,6.63357 4.75957,6.63357 2.604784,2.0585 14.35262,9.19598 14.35262,9.19598 l 8.472598,0.30128 c 0,0 -14.023574,-8.08268 -17.23439,-9.72801 0,0 -5.497213,-3.81642 -6.541488,-6.31784 -1.324207,-3.17195 -0.6663,-4.91573 1.02979,-7.45337 2.988177,-4.47083 14.402903,-13.543172 14.402903,-13.543172 z"
       id="path17515"
       sodipodi:nodetypes="ccsssccsssc" /><path
       d="m 62.318476,75.116529 9.505846,46.630501 c 0,0 -20.510674,1.84419 -23.501612,-21.40688 C 46.447395,85.761829 62.318476,75.116529 62.318476,75.116529 Z"
       style="fill:#ffffff;fill-opacity:1;stroke:#53371b;stroke-width:0.235521;stroke-dasharray:none;stroke-opacity:0"
       id="path16676"
       sodipodi:nodetypes="ccsc" /><path
       style="fill:#999999;fill-opacity:1;stroke:#53371b;stroke-width:0.235521;stroke-dasharray:none;stroke-opacity:0"
       d="m 73.825068,122.65717 c 0,0 13.418828,5.3107 22.701091,-9.49609 11.557551,-18.436237 2.350656,-27.710247 2.350656,-27.710247 z"
       id="path12474"
       sodipodi:nodetypes="cscc" /><path
       d="m 65.245103,75.148971 c 0,0 -0.865447,17.886413 1.486377,26.766989 1.784952,6.74004 9.4225,18.23858 9.4225,18.23858 0,0 -14.449939,7.26456 -23.501894,-18.55097 C 48.994467,91.172299 65.245103,75.148971 65.245103,75.148971 Z"
       style="fill:#e5e5e5;fill-opacity:1;stroke:#53371b;stroke-width:0.235521;stroke-dasharray:none;stroke-opacity:0"
       id="path16676-9"
       sodipodi:nodetypes="cscsc" /><path
       style="fill:#bababa;fill-opacity:1;stroke:#53371b;stroke-width:0.235521;stroke-dasharray:none;stroke-opacity:0"
       d="m 70.302952,122.09979 14.957532,-17.30325 9.451467,-24.006295 c 0,0 12.333369,1.663116 1.836688,26.244015 -11.639431,22.35741 -26.245687,15.06553 -26.245687,15.06553 z"
       id="path15086"
       sodipodi:nodetypes="ccccc" /><path
       d="m 68.25618,76.420952 c 0,0 -0.791027,16.493862 0.860706,24.234048 1.399982,6.56045 8.294445,18.66785 8.294445,18.66785 0,0 -11.974884,0.0276 -18.895441,-18.55867 -5.123407,-13.759708 9.74029,-24.343228 9.74029,-24.343228 z"
       style="fill:#d6d6d6;fill-opacity:1;stroke:#53371b;stroke-width:0.235521;stroke-dasharray:none;stroke-opacity:0"
       id="path16676-9-3"
       sodipodi:nodetypes="cscsc" /><path
       style="fill:#cfcfcf;fill-opacity:1;stroke:#53371b;stroke-width:0.235521;stroke-dasharray:none;stroke-opacity:0"
       d="m 68.740635,121.6862 c 0,0 11.077969,-11.2847 14.817641,-17.67894 4.244142,-7.256802 9.1338,-23.274167 9.1338,-23.274167 0,0 12.512934,-0.227117 -0.784167,23.822957 -14.690992,26.57114 -23.167274,17.13015 -23.167274,17.13015 z"
       id="path15086-2"
       sodipodi:nodetypes="cscsc" /><path
       style="fill:#ffffff;fill-opacity:1;stroke:#53371b;stroke-width:0.235521;stroke-dasharray:none;stroke-opacity:0"
       d="M 102.32797,96.293158 70.430348,72.200811 c 0,0 8.021369,-4.07888 21.263449,4.276243 14.558923,9.185984 10.634173,19.816104 10.634173,19.816104 z"
       id="path15086-2-9"
       sodipodi:nodetypes="ccsc" /><path
       style="fill:#ebebeb;fill-opacity:1;stroke:#53371b;stroke-width:0.235521;stroke-dasharray:none;stroke-opacity:0"
       d="M 102.27928,97.772838 64.679012,74.242443 c 0,0 3.553416,-7.660794 22.186808,4.852947 19.92919,13.383968 15.41346,18.677448 15.41346,18.677448 z"
       id="path15086-2-9-7"
       sodipodi:nodetypes="ccsc" /><path
       style="fill:#dedede;fill-opacity:1;stroke:#53371b;stroke-width:0.235521;stroke-dasharray:none;stroke-opacity:0"
       d="m 101.35083,102.95651 c 0,0 -11.138018,-12.154905 -17.784877,-15.949741 -7.193205,-4.106758 -24.895445,-8.963936 -24.895445,-8.963936 0.508664,-1.149721 3.964034,-10.667961 26.57024,5.365306 10.527075,7.466253 21.167012,13.049499 16.110082,19.548371 z"
       id="path15086-2-9-7-9"
       sodipodi:nodetypes="csssc" /></g></svg>
